# MagicaVoxel @ ephtracy

# material
mtllib crowBar.mtl
usemtl palette

# normals
vn -1 0 0
vn 1 0 0
vn 0 0 1
vn 0 0 -1
vn 0 -1 0
vn 0 1 0

# texcoords
vt 0.853516 0.5
vt 0.970703 0.5

# verts
v -9.5 0 2
v -9.5 0 -1
v -9.5 1 2
v -9.5 1 -1
v 8.5 0 -1
v 8.5 0 -2
v 8.5 1 -1
v 8.5 1 -2
v -8.5 0 1
v -8.5 0 -0
v -8.5 1 1
v -8.5 1 -0
v -6.5 0 2
v -6.5 0 1
v -6.5 1 2
v -6.5 1 1
v 9.5 0 -0
v 9.5 0 -2
v 9.5 1 -0
v 9.5 1 -2
v -9.5 0 2
v -9.5 1 2
v -6.5 0 2
v -6.5 1 2
v -8.5 0 -0
v -8.5 1 -0
v 7.5 0 -0
v 7.5 1 -0
v 9.5 0 -0
v 9.5 1 -0
v -8.5 0 1
v -8.5 1 1
v -6.5 0 1
v -6.5 1 1
v -9.5 0 -1
v -9.5 1 -1
v -8.5 0 -1
v -8.5 1 -1
v 7.5 0 -1
v 7.5 1 -1
v 8.5 0 -1
v 8.5 1 -1
v 8.5 0 -2
v 8.5 1 -2
v 9.5 0 -2
v 9.5 1 -2
v -9.5 0 2
v -6.5 0 2
v -8.5 0 1
v -6.5 0 1
v -8.5 0 -0
v 7.5 0 -0
v 9.5 0 -0
v -9.5 0 -1
v -8.5 0 -1
v 7.5 0 -1
v 8.5 0 -1
v 8.5 0 -2
v 9.5 0 -2
v -9.5 1 2
v -6.5 1 2
v -8.5 1 1
v -6.5 1 1
v -8.5 1 -0
v 7.5 1 -0
v 9.5 1 -0
v -9.5 1 -1
v -8.5 1 -1
v 7.5 1 -1
v 8.5 1 -1
v 8.5 1 -2
v 9.5 1 -2

# faces
f 3/2/1 2/2/1 1/2/1
f 4/2/1 2/2/1 3/2/1
f 7/2/1 6/2/1 5/2/1
f 8/2/1 6/2/1 7/2/1
f 9/2/2 10/2/2 11/2/2
f 11/2/2 10/2/2 12/2/2
f 13/2/2 14/2/2 15/2/2
f 15/2/2 14/2/2 16/2/2
f 17/2/2 18/2/2 19/2/2
f 19/2/2 18/2/2 20/2/2
f 23/2/3 22/2/3 21/2/3
f 24/2/3 22/2/3 23/2/3
f 27/1/3 26/1/3 25/1/3
f 28/1/3 26/1/3 27/1/3
f 29/2/3 28/2/3 27/2/3
f 30/2/3 28/2/3 29/2/3
f 31/2/4 32/2/4 33/2/4
f 33/2/4 32/2/4 34/2/4
f 35/2/4 36/2/4 37/2/4
f 37/2/4 36/2/4 38/2/4
f 37/1/4 38/1/4 39/1/4
f 39/1/4 38/1/4 40/1/4
f 39/2/4 40/2/4 41/2/4
f 41/2/4 40/2/4 42/2/4
f 43/2/4 44/2/4 45/2/4
f 45/2/4 44/2/4 46/2/4
f 49/2/5 48/2/5 47/2/5
f 50/2/5 48/2/5 49/2/5
f 51/2/5 49/2/5 47/2/5
f 54/2/5 51/2/5 47/2/5
f 55/1/5 52/1/5 51/1/5
f 55/2/5 51/2/5 54/2/5
f 56/2/5 53/2/5 52/2/5
f 56/1/5 52/1/5 55/1/5
f 57/2/5 53/2/5 56/2/5
f 58/2/5 53/2/5 57/2/5
f 59/2/5 53/2/5 58/2/5
f 60/2/6 61/2/6 62/2/6
f 62/2/6 61/2/6 63/2/6
f 60/2/6 62/2/6 64/2/6
f 60/2/6 64/2/6 67/2/6
f 64/1/6 65/1/6 68/1/6
f 67/2/6 64/2/6 68/2/6
f 65/2/6 66/2/6 69/2/6
f 68/1/6 65/1/6 69/1/6
f 69/2/6 66/2/6 70/2/6
f 70/2/6 66/2/6 71/2/6
f 71/2/6 66/2/6 72/2/6
